<mxfile host="app.diagrams.net" modified="2022-02-25T08:06:30.906Z" agent="5.0 (X11)" etag="npyOYdPUjx_NzWUcyUlS" version="16.6.4" type="github">
  <diagram id="p_E9fnMhY9-ETLer_EOk" name="Page-1">
    <mxGraphModel dx="1484" dy="974" grid="1" gridSize="10" guides="1" tooltips="1" connect="1" arrows="1" fold="1" page="1" pageScale="1" pageWidth="827" pageHeight="1169" math="0" shadow="0">
      <root>
        <mxCell id="0" />
        <mxCell id="1" parent="0" />
        <mxCell id="f48x7kQQ9nX4CLcgKuqJ-1" value="Actor" style="shape=umlActor;verticalLabelPosition=bottom;verticalAlign=top;html=1;outlineConnect=0;" vertex="1" parent="1">
          <mxGeometry x="400" y="470" width="30" height="60" as="geometry" />
        </mxCell>
        <mxCell id="aVpUsONNpkUj2Uz1npXK-1" value="" style="whiteSpace=wrap;html=1;aspect=fixed;" vertex="1" parent="1">
          <mxGeometry x="370" y="270" width="80" height="80" as="geometry" />
        </mxCell>
      </root>
    </mxGraphModel>
  </diagram>
</mxfile>
